<svg xmlns="http://www.w3.org/2000/svg" viewBox="0 0 1044 634" width="1044" height="634" role="img" aria-label="Mandatum — approval decided, agent complete terminal frame">
<rect width="1044" height="634" rx="12" fill="#0d1117" stroke="#30363d" stroke-width="1"/>
<circle cx="22" cy="20" r="5.5" fill="#f85149"/>
<circle cx="42" cy="20" r="5.5" fill="#d29922"/>
<circle cx="62" cy="20" r="5.5" fill="#3fb950"/>
<text x="522" y="24" text-anchor="middle" fill="#8b949e" font-family="ui-monospace,SFMono-Regular,Menlo,Consolas,monospace" font-size="12">Mandatum — approval decided, agent complete</text>
<g font-family="ui-monospace,SFMono-Regular,Menlo,Consolas,monospace" font-size="13.5" xml:space="preserve">
<rect x="18.0" y="40.0" width="100.8" height="18.0" fill="#282c34"/>
<rect x="118.8" y="40.0" width="184.8" height="18.0" fill="#282c34"/>
<text x="18.0" y="53.5" fill="#e6e6e6"> Mandatum | </text>
<text x="118.8" y="53.5" fill="#e06c75" font-weight="bold">1 task failed · checks</text>
<text x="18.0" y="71.5" fill="#5c6370">┌ terminal ──────────────────┐┌ checks ────────────────────┐┌ dev server ──────────────────────────────────────────────┐</text>
<text x="18.0" y="89.5" fill="#c8ccd4">│</text>
<text x="26.4" y="89.5" fill="#c8ccd4">caseytalbot@Caseys-MacBook-P</text>
<text x="261.6" y="89.5" fill="#5c6370">││</text>
<text x="278.4" y="89.5" fill="#c8ccd4">command: sh ./flaky-check.sh</text>
<text x="513.6" y="89.5" fill="#5c6370">││</text>
<text x="530.4" y="89.5" fill="#c8ccd4">command: i=0; while :; do i=$…heartbeat $i&quot;; sleep 2; done</text>
<text x="1017.6" y="89.5" fill="#5c6370">│</text>
<text x="18.0" y="107.5" fill="#c8ccd4">│</text>
<text x="26.4" y="107.5" fill="#c8ccd4">ro-2 demo-ws % </text>
<text x="261.6" y="107.5" fill="#5c6370">││</text>
<text x="278.4" y="107.5" fill="#c8ccd4">cwd: .                      </text>
<text x="513.6" y="107.5" fill="#5c6370">││</text>
<text x="530.4" y="107.5" fill="#c8ccd4">cwd: .                                                    </text>
<text x="1017.6" y="107.5" fill="#5c6370">│</text>
<text x="18.0" y="125.5" fill="#c8ccd4">│</text>
<text x="261.6" y="125.5" fill="#5c6370">││</text>
<text x="278.4" y="125.5" fill="#c8ccd4">recipe: checks              </text>
<text x="513.6" y="125.5" fill="#5c6370">││</text>
<text x="530.4" y="125.5" fill="#c8ccd4">recipe: dev-server                                        </text>
<text x="1017.6" y="125.5" fill="#5c6370">│</text>
<text x="18.0" y="143.5" fill="#c8ccd4">│</text>
<text x="85.2" y="143.5" fill="#e5c07b" font-weight="bold">┌ agent | focused | floating ──────────────────────────────────────────────────────────────────┐</text>
<text x="1017.6" y="143.5" fill="#5c6370">│</text>
<text x="18.0" y="161.5" fill="#c8ccd4">│</text>
<text x="85.2" y="161.5" fill="#e5c07b" font-weight="bold">│</text>
<text x="93.6" y="161.5" fill="#c8ccd4">objective: remove the flaky marker file so the checks pass (fake connector demo)              </text>
<text x="883.2" y="161.5" fill="#e5c07b" font-weight="bold">│</text>
<text x="1017.6" y="161.5" fill="#5c6370">│</text>
<text x="18.0" y="179.5" fill="#c8ccd4">│</text>
<text x="85.2" y="179.5" fill="#e5c07b" font-weight="bold">│</text>
<text x="93.6" y="179.5" fill="#56b6c2" font-weight="bold">status: complete</text>
<text x="883.2" y="179.5" fill="#e5c07b" font-weight="bold">│</text>
<text x="1017.6" y="179.5" fill="#5c6370">│</text>
<text x="18.0" y="197.5" fill="#c8ccd4">│</text>
<text x="85.2" y="197.5" fill="#e5c07b" font-weight="bold">│</text>
<text x="93.6" y="197.5" fill="#c8ccd4">action: idle                                                                                  </text>
<text x="883.2" y="197.5" fill="#e5c07b" font-weight="bold">│</text>
<text x="1017.6" y="197.5" fill="#5c6370">│</text>
<text x="18.0" y="215.5" fill="#c8ccd4">│</text>
<text x="85.2" y="215.5" fill="#e5c07b" font-weight="bold">│</text>
<text x="93.6" y="215.5" fill="#c8ccd4">summary: removed the flaky marker; checks should pass                                         </text>
<text x="883.2" y="215.5" fill="#e5c07b" font-weight="bold">│</text>
<text x="1017.6" y="215.5" fill="#5c6370">│</text>
<text x="18.0" y="233.5" fill="#c8ccd4">│</text>
<text x="85.2" y="233.5" fill="#e5c07b" font-weight="bold">│</text>
<text x="93.6" y="233.5" fill="#c8ccd4">pending approvals: 0                                                                          </text>
<text x="883.2" y="233.5" fill="#e5c07b" font-weight="bold">│</text>
<text x="1017.6" y="233.5" fill="#5c6370">│</text>
<text x="18.0" y="251.5" fill="#c8ccd4">│</text>
<text x="85.2" y="251.5" fill="#e5c07b" font-weight="bold">│</text>
<text x="93.6" y="251.5" fill="#c8ccd4">changed files (1):                                                                            </text>
<text x="883.2" y="251.5" fill="#e5c07b" font-weight="bold">│</text>
<text x="1017.6" y="251.5" fill="#5c6370">│</text>
<text x="18.0" y="269.5" fill="#c8ccd4">│</text>
<text x="85.2" y="269.5" fill="#e5c07b" font-weight="bold">│</text>
<text x="93.6" y="269.5" fill="#c8ccd4">.flip                                                                                         </text>
<text x="883.2" y="269.5" fill="#e5c07b" font-weight="bold">│</text>
<text x="1017.6" y="269.5" fill="#5c6370">│</text>
<text x="18.0" y="287.5" fill="#c8ccd4">│</text>
<text x="85.2" y="287.5" fill="#e5c07b" font-weight="bold">│</text>
<text x="93.6" y="287.5" fill="#c8ccd4">output:                                                                                       </text>
<text x="883.2" y="287.5" fill="#e5c07b" font-weight="bold">│</text>
<text x="1017.6" y="287.5" fill="#5c6370">│</text>
<text x="18.0" y="305.5" fill="#c8ccd4">│</text>
<text x="85.2" y="305.5" fill="#e5c07b" font-weight="bold">│</text>
<text x="93.6" y="305.5" fill="#c8ccd4">reading the failing check output                                                              </text>
<text x="883.2" y="305.5" fill="#e5c07b" font-weight="bold">│</text>
<text x="1017.6" y="305.5" fill="#5c6370">│</text>
<text x="18.0" y="323.5" fill="#c8ccd4">│</text>
<text x="85.2" y="323.5" fill="#e5c07b" font-weight="bold">│</text>
<text x="93.6" y="323.5" fill="#c8ccd4">$ cat .flip                                                                                   </text>
<text x="883.2" y="323.5" fill="#e5c07b" font-weight="bold">│</text>
<text x="1017.6" y="323.5" fill="#5c6370">│</text>
<text x="18.0" y="341.5" fill="#c8ccd4">│</text>
<text x="85.2" y="341.5" fill="#e5c07b" font-weight="bold">│</text>
<text x="93.6" y="341.5" fill="#c8ccd4">(no output)                                                                                   </text>
<text x="883.2" y="341.5" fill="#e5c07b" font-weight="bold">│</text>
<text x="1017.6" y="341.5" fill="#5c6370">│</text>
<text x="18.0" y="359.5" fill="#c8ccd4">│</text>
<text x="85.2" y="359.5" fill="#e5c07b" font-weight="bold">│</text>
<text x="93.6" y="359.5" fill="#c8ccd4">$ rm .flip                                                                                    </text>
<text x="883.2" y="359.5" fill="#e5c07b" font-weight="bold">│</text>
<text x="1017.6" y="359.5" fill="#5c6370">│</text>
<text x="18.0" y="377.5" fill="#c8ccd4">│</text>
<text x="85.2" y="377.5" fill="#e5c07b" font-weight="bold">│</text>
<text x="93.6" y="377.5" fill="#c8ccd4">(no output)                                                                                   </text>
<text x="883.2" y="377.5" fill="#e5c07b" font-weight="bold">│</text>
<text x="1017.6" y="377.5" fill="#5c6370">│</text>
<text x="18.0" y="395.5" fill="#c8ccd4">│</text>
<text x="85.2" y="395.5" fill="#e5c07b" font-weight="bold">│</text>
<text x="883.2" y="395.5" fill="#e5c07b" font-weight="bold">│</text>
<text x="1017.6" y="395.5" fill="#5c6370">│</text>
<text x="18.0" y="413.5" fill="#c8ccd4">│</text>
<text x="85.2" y="413.5" fill="#e5c07b" font-weight="bold">│</text>
<text x="883.2" y="413.5" fill="#e5c07b" font-weight="bold">│</text>
<text x="1017.6" y="413.5" fill="#5c6370">│</text>
<text x="18.0" y="431.5" fill="#c8ccd4">│</text>
<text x="85.2" y="431.5" fill="#e5c07b" font-weight="bold">│</text>
<text x="883.2" y="431.5" fill="#e5c07b" font-weight="bold">│</text>
<text x="1017.6" y="431.5" fill="#5c6370">│</text>
<text x="18.0" y="449.5" fill="#c8ccd4">│</text>
<text x="85.2" y="449.5" fill="#e5c07b" font-weight="bold">│</text>
<text x="883.2" y="449.5" fill="#e5c07b" font-weight="bold">│</text>
<text x="1017.6" y="449.5" fill="#5c6370">│</text>
<text x="18.0" y="467.5" fill="#c8ccd4">│</text>
<text x="85.2" y="467.5" fill="#e5c07b" font-weight="bold">│</text>
<text x="883.2" y="467.5" fill="#e5c07b" font-weight="bold">│</text>
<text x="1017.6" y="467.5" fill="#5c6370">│</text>
<text x="18.0" y="485.5" fill="#c8ccd4">│</text>
<text x="85.2" y="485.5" fill="#e5c07b" font-weight="bold">│</text>
<text x="883.2" y="485.5" fill="#e5c07b" font-weight="bold">│</text>
<text x="1017.6" y="485.5" fill="#5c6370">│</text>
<text x="18.0" y="503.5" fill="#c8ccd4">│</text>
<text x="85.2" y="503.5" fill="#e5c07b" font-weight="bold">│</text>
<text x="883.2" y="503.5" fill="#e5c07b" font-weight="bold">│</text>
<text x="1017.6" y="503.5" fill="#5c6370">│</text>
<text x="18.0" y="521.5" fill="#c8ccd4">│</text>
<text x="85.2" y="521.5" fill="#e5c07b" font-weight="bold">│</text>
<text x="883.2" y="521.5" fill="#e5c07b" font-weight="bold">│</text>
<text x="1017.6" y="521.5" fill="#5c6370">│</text>
<text x="18.0" y="539.5" fill="#c8ccd4">│</text>
<text x="85.2" y="539.5" fill="#e5c07b" font-weight="bold">│</text>
<text x="883.2" y="539.5" fill="#e5c07b" font-weight="bold">│</text>
<text x="1017.6" y="539.5" fill="#5c6370">│</text>
<text x="18.0" y="557.5" fill="#c8ccd4">│</text>
<text x="85.2" y="557.5" fill="#e5c07b" font-weight="bold">│</text>
<text x="883.2" y="557.5" fill="#e5c07b" font-weight="bold">│</text>
<text x="1017.6" y="557.5" fill="#5c6370">│</text>
<text x="18.0" y="575.5" fill="#c8ccd4">│</text>
<text x="85.2" y="575.5" fill="#e5c07b" font-weight="bold">│</text>
<text x="883.2" y="575.5" fill="#e5c07b" font-weight="bold">│</text>
<text x="1017.6" y="575.5" fill="#5c6370">│</text>
<text x="18.0" y="593.5" fill="#c8ccd4">└───────</text>
<text x="85.2" y="593.5" fill="#e5c07b" font-weight="bold">└──────────────────────────────────────────────────────────────────────────────────────────────┘</text>
<text x="891.6" y="593.5" fill="#5c6370">───────────────┘</text>
<text x="18.0" y="611.5" fill="#abb2bf"> agent pane-4 completed — ctrl+p commands · right-click menu · f1 help</text>
</g></svg>
